<mxfile host="65bd71144e">
    <diagram name="Page-1" id="YVVdXwciX_kCXgLM4vlG">
        <mxGraphModel dx="1295" dy="503" grid="1" gridSize="10" guides="1" tooltips="1" connect="1" arrows="1" fold="1" page="1" pageScale="1" pageWidth="850" pageHeight="1100" background="#ffffff" math="0" shadow="0">
            <root>
                <mxCell id="0"/>
                <mxCell id="1" parent="0"/>
                <mxCell id="3TpX2DsgrMbCzZT64vuU-35" value="" style="rounded=0;whiteSpace=wrap;html=1;strokeColor=#333333;fillColor=#B3B3B3;" parent="1" vertex="1">
                    <mxGeometry x="-420" y="430" width="700" height="90" as="geometry"/>
                </mxCell>
                <mxCell id="3TpX2DsgrMbCzZT64vuU-33" value="" style="rounded=0;whiteSpace=wrap;html=1;strokeColor=#333333;fillColor=#B3B3B3;" parent="1" vertex="1">
                    <mxGeometry x="-410" y="440" width="780" height="20" as="geometry"/>
                </mxCell>
                <mxCell id="3TpX2DsgrMbCzZT64vuU-1" value="" style="rounded=0;whiteSpace=wrap;html=1;strokeColor=#333333;fillColor=#B3B3B3;" parent="1" vertex="1">
                    <mxGeometry x="360" y="430" width="150" height="540" as="geometry"/>
                </mxCell>
                <mxCell id="3TpX2DsgrMbCzZT64vuU-2" value="" style="rounded=0;whiteSpace=wrap;html=1;fillColor=#4D4D4D;strokeColor=none;shadow=1;" parent="1" vertex="1">
                    <mxGeometry x="430" y="900" width="70" height="60" as="geometry"/>
                </mxCell>
                <mxCell id="3TpX2DsgrMbCzZT64vuU-3" value="" style="rounded=0;whiteSpace=wrap;html=1;fillColor=#4D4D4D;strokeColor=none;shadow=1;" parent="1" vertex="1">
                    <mxGeometry x="360" y="900" width="70" height="60" as="geometry"/>
                </mxCell>
                <mxCell id="3TpX2DsgrMbCzZT64vuU-4" value="" style="rounded=0;whiteSpace=wrap;html=1;fillColor=#4D4D4D;strokeColor=none;shadow=1;" parent="1" vertex="1">
                    <mxGeometry x="360" y="740" width="60" height="40" as="geometry"/>
                </mxCell>
                <mxCell id="3TpX2DsgrMbCzZT64vuU-5" value="" style="rounded=0;whiteSpace=wrap;html=1;fillColor=#4D4D4D;strokeColor=none;shadow=1;" parent="1" vertex="1">
                    <mxGeometry x="440" y="820" width="60" height="60" as="geometry"/>
                </mxCell>
                <mxCell id="3TpX2DsgrMbCzZT64vuU-7" value="" style="rounded=0;whiteSpace=wrap;html=1;strokeColor=#333333;fillColor=#B3B3B3;" parent="1" vertex="1">
                    <mxGeometry x="360" y="840" width="60" height="40" as="geometry"/>
                </mxCell>
                <mxCell id="3TpX2DsgrMbCzZT64vuU-8" value="" style="rounded=0;whiteSpace=wrap;html=1;strokeColor=#333333;fillColor=#B3B3B3;" parent="1" vertex="1">
                    <mxGeometry x="360" y="820" width="40" height="20" as="geometry"/>
                </mxCell>
                <mxCell id="3TpX2DsgrMbCzZT64vuU-9" value="" style="rounded=0;whiteSpace=wrap;html=1;strokeColor=#333333;fillColor=#B3B3B3;" parent="1" vertex="1">
                    <mxGeometry x="400" y="820" width="20" height="20" as="geometry"/>
                </mxCell>
                <mxCell id="3TpX2DsgrMbCzZT64vuU-10" value="" style="rounded=0;whiteSpace=wrap;html=1;strokeColor=#333333;fillColor=#B3B3B3;" parent="1" vertex="1">
                    <mxGeometry x="360" y="830" width="40" height="10" as="geometry"/>
                </mxCell>
                <mxCell id="3TpX2DsgrMbCzZT64vuU-11" value="" style="rounded=0;whiteSpace=wrap;html=1;fillColor=#4D4D4D;strokeColor=none;shadow=1;" parent="1" vertex="1">
                    <mxGeometry x="440" y="760" width="60" height="60" as="geometry"/>
                </mxCell>
                <mxCell id="3TpX2DsgrMbCzZT64vuU-12" value="" style="rounded=0;whiteSpace=wrap;html=1;strokeColor=#333333;fillColor=#B3B3B3;" parent="1" vertex="1">
                    <mxGeometry x="360" y="780" width="30" height="20" as="geometry"/>
                </mxCell>
                <mxCell id="3TpX2DsgrMbCzZT64vuU-13" value="" style="rounded=0;whiteSpace=wrap;html=1;strokeColor=#333333;fillColor=#B3B3B3;" parent="1" vertex="1">
                    <mxGeometry x="390" y="780" width="30" height="20" as="geometry"/>
                </mxCell>
                <mxCell id="3TpX2DsgrMbCzZT64vuU-14" value="" style="rounded=0;whiteSpace=wrap;html=1;fillColor=#4D4D4D;strokeColor=none;shadow=1;" parent="1" vertex="1">
                    <mxGeometry x="440" y="700" width="60" height="60" as="geometry"/>
                </mxCell>
                <mxCell id="3TpX2DsgrMbCzZT64vuU-15" value="" style="rounded=0;whiteSpace=wrap;html=1;fillColor=#4D4D4D;strokeColor=none;shadow=1;" parent="1" vertex="1">
                    <mxGeometry x="360" y="680" width="60" height="60" as="geometry"/>
                </mxCell>
                <mxCell id="3TpX2DsgrMbCzZT64vuU-17" value="" style="rounded=0;whiteSpace=wrap;html=1;fillColor=#4D4D4D;strokeColor=none;shadow=1;" parent="1" vertex="1">
                    <mxGeometry x="440" y="680" width="60" height="20" as="geometry"/>
                </mxCell>
                <mxCell id="3TpX2DsgrMbCzZT64vuU-19" value="" style="rounded=0;whiteSpace=wrap;html=1;strokeColor=#333333;fillColor=#B3B3B3;" parent="1" vertex="1">
                    <mxGeometry x="360" y="660" width="60" height="20" as="geometry"/>
                </mxCell>
                <mxCell id="3TpX2DsgrMbCzZT64vuU-20" value="" style="rounded=0;whiteSpace=wrap;html=1;fillColor=#4D4D4D;strokeColor=none;shadow=1;" parent="1" vertex="1">
                    <mxGeometry x="440" y="640" width="60" height="40" as="geometry"/>
                </mxCell>
                <mxCell id="3TpX2DsgrMbCzZT64vuU-21" value="" style="rounded=0;whiteSpace=wrap;html=1;fillColor=#4D4D4D;strokeColor=none;shadow=1;" parent="1" vertex="1">
                    <mxGeometry x="360" y="580" width="60" height="80" as="geometry"/>
                </mxCell>
                <mxCell id="3TpX2DsgrMbCzZT64vuU-23" value="" style="rounded=0;whiteSpace=wrap;html=1;fillColor=#4D4D4D;strokeColor=none;shadow=1;" parent="1" vertex="1">
                    <mxGeometry x="360" y="560" width="60" height="20" as="geometry"/>
                </mxCell>
                <mxCell id="3TpX2DsgrMbCzZT64vuU-25" value="" style="rounded=0;whiteSpace=wrap;html=1;fillColor=#4D4D4D;strokeColor=none;shadow=1;" parent="1" vertex="1">
                    <mxGeometry x="360" y="540" width="60" height="20" as="geometry"/>
                </mxCell>
                <mxCell id="3TpX2DsgrMbCzZT64vuU-26" value="" style="rounded=0;whiteSpace=wrap;html=1;fillColor=#4D4D4D;strokeColor=none;shadow=1;direction=south;" parent="1" vertex="1">
                    <mxGeometry x="440" y="580" width="60" height="60" as="geometry"/>
                </mxCell>
                <mxCell id="3TpX2DsgrMbCzZT64vuU-24" value="" style="rounded=0;whiteSpace=wrap;html=1;fillColor=#4D4D4D;strokeColor=none;shadow=1;" parent="1" vertex="1">
                    <mxGeometry x="440" y="560" width="60" height="20" as="geometry"/>
                </mxCell>
                <mxCell id="3TpX2DsgrMbCzZT64vuU-27" value="" style="rounded=0;whiteSpace=wrap;html=1;fillColor=#4D4D4D;strokeColor=none;shadow=1;" parent="1" vertex="1">
                    <mxGeometry x="440" y="490" width="60" height="70" as="geometry"/>
                </mxCell>
                <mxCell id="3TpX2DsgrMbCzZT64vuU-28" value="" style="rounded=0;whiteSpace=wrap;html=1;fillColor=#4D4D4D;strokeColor=none;shadow=1;" parent="1" vertex="1">
                    <mxGeometry x="360" y="470" width="60" height="70" as="geometry"/>
                </mxCell>
                <mxCell id="3TpX2DsgrMbCzZT64vuU-29" value="" style="rounded=0;whiteSpace=wrap;html=1;strokeColor=#333333;fillColor=#B3B3B3;" parent="1" vertex="1">
                    <mxGeometry x="440" y="470" width="60" height="20" as="geometry"/>
                </mxCell>
                <mxCell id="3TpX2DsgrMbCzZT64vuU-30" value="" style="rounded=0;whiteSpace=wrap;html=1;strokeColor=#333333;fillColor=#B3B3B3;" parent="1" vertex="1">
                    <mxGeometry x="440" y="430" width="70" height="40" as="geometry"/>
                </mxCell>
                <mxCell id="3TpX2DsgrMbCzZT64vuU-31" value="" style="rounded=0;whiteSpace=wrap;html=1;strokeColor=#333333;fillColor=#B3B3B3;glass=0;" parent="1" vertex="1">
                    <mxGeometry x="460" y="445" width="30" height="10" as="geometry"/>
                </mxCell>
                <mxCell id="3TpX2DsgrMbCzZT64vuU-36" value="" style="rounded=0;whiteSpace=wrap;html=1;fillColor=#4D4D4D;strokeColor=none;shadow=1;" parent="1" vertex="1">
                    <mxGeometry x="230" y="460" width="50" height="50" as="geometry"/>
                </mxCell>
                <mxCell id="3TpX2DsgrMbCzZT64vuU-37" value="" style="rounded=0;whiteSpace=wrap;html=1;fillColor=#4D4D4D;strokeColor=none;shadow=1;" parent="1" vertex="1">
                    <mxGeometry x="180" y="460" width="50" height="50" as="geometry"/>
                </mxCell>
                <mxCell id="3TpX2DsgrMbCzZT64vuU-38" value="" style="rounded=0;whiteSpace=wrap;html=1;fillColor=#4D4D4D;strokeColor=none;shadow=1;" parent="1" vertex="1">
                    <mxGeometry x="130" y="460" width="50" height="50" as="geometry"/>
                </mxCell>
                <mxCell id="3TpX2DsgrMbCzZT64vuU-39" value="" style="rounded=0;whiteSpace=wrap;html=1;fillColor=#4D4D4D;strokeColor=none;shadow=1;" parent="1" vertex="1">
                    <mxGeometry x="80" y="460" width="50" height="50" as="geometry"/>
                </mxCell>
                <mxCell id="3TpX2DsgrMbCzZT64vuU-40" value="" style="rounded=0;whiteSpace=wrap;html=1;fillColor=#4D4D4D;strokeColor=none;shadow=1;" parent="1" vertex="1">
                    <mxGeometry x="30" y="460" width="50" height="50" as="geometry"/>
                </mxCell>
                <mxCell id="3TpX2DsgrMbCzZT64vuU-41" value="" style="rounded=0;whiteSpace=wrap;html=1;strokeColor=#333333;fillColor=#B3B3B3;" parent="1" vertex="1">
                    <mxGeometry x="-60" y="460" width="90" height="40" as="geometry"/>
                </mxCell>
                <mxCell id="3TpX2DsgrMbCzZT64vuU-43" value="" style="rounded=0;whiteSpace=wrap;html=1;strokeColor=#333333;fillColor=#B3B3B3;" parent="1" vertex="1">
                    <mxGeometry x="-30" y="460" width="60" height="40" as="geometry"/>
                </mxCell>
                <mxCell id="3TpX2DsgrMbCzZT64vuU-44" value="" style="rounded=0;whiteSpace=wrap;html=1;strokeColor=#333333;fillColor=#B3B3B3;" parent="1" vertex="1">
                    <mxGeometry x="-15" y="475" width="30" height="10" as="geometry"/>
                </mxCell>
                <mxCell id="3TpX2DsgrMbCzZT64vuU-45" value="" style="rounded=0;whiteSpace=wrap;html=1;strokeColor=#333333;fillColor=#B3B3B3;" parent="1" vertex="1">
                    <mxGeometry x="-160" y="460" width="60" height="50" as="geometry"/>
                </mxCell>
                <mxCell id="3TpX2DsgrMbCzZT64vuU-46" value="" style="endArrow=none;html=1;rounded=0;exitX=0.993;exitY=0.798;exitDx=0;exitDy=0;exitPerimeter=0;strokeColor=#1A1A1A;" parent="1" source="3TpX2DsgrMbCzZT64vuU-45" edge="1">
                    <mxGeometry width="50" height="50" relative="1" as="geometry">
                        <mxPoint x="-110" y="550" as="sourcePoint"/>
                        <mxPoint x="-60" y="500" as="targetPoint"/>
                    </mxGeometry>
                </mxCell>
                <mxCell id="3TpX2DsgrMbCzZT64vuU-47" value="" style="rounded=0;whiteSpace=wrap;html=1;strokeColor=#333333;fillColor=#B3B3B3;" parent="1" vertex="1">
                    <mxGeometry x="-160" y="460" width="20" height="50" as="geometry"/>
                </mxCell>
                <mxCell id="3TpX2DsgrMbCzZT64vuU-48" value="" style="rounded=0;whiteSpace=wrap;html=1;fillColor=#4D4D4D;strokeColor=none;shadow=1;" parent="1" vertex="1">
                    <mxGeometry x="-210" y="460" width="50" height="50" as="geometry"/>
                </mxCell>
                <mxCell id="3TpX2DsgrMbCzZT64vuU-49" value="" style="rounded=0;whiteSpace=wrap;html=1;fillColor=#4D4D4D;strokeColor=none;shadow=1;" parent="1" vertex="1">
                    <mxGeometry x="-260" y="460" width="50" height="50" as="geometry"/>
                </mxCell>
                <mxCell id="3TpX2DsgrMbCzZT64vuU-50" value="" style="rounded=0;whiteSpace=wrap;html=1;fillColor=#4D4D4D;strokeColor=none;shadow=1;" parent="1" vertex="1">
                    <mxGeometry x="-310" y="460" width="50" height="50" as="geometry"/>
                </mxCell>
                <mxCell id="3TpX2DsgrMbCzZT64vuU-51" value="" style="rounded=0;whiteSpace=wrap;html=1;fillColor=#4D4D4D;strokeColor=none;shadow=1;" parent="1" vertex="1">
                    <mxGeometry x="-360" y="460" width="50" height="50" as="geometry"/>
                </mxCell>
                <mxCell id="3TpX2DsgrMbCzZT64vuU-52" value="" style="rounded=0;whiteSpace=wrap;html=1;fillColor=#4D4D4D;strokeColor=none;shadow=1;" parent="1" vertex="1">
                    <mxGeometry x="-410" y="460" width="50" height="50" as="geometry"/>
                </mxCell>
                <mxCell id="3TpX2DsgrMbCzZT64vuU-53" value="" style="endArrow=none;html=1;rounded=0;strokeColor=#B3B3B3;shadow=0;" parent="1" edge="1">
                    <mxGeometry width="50" height="50" relative="1" as="geometry">
                        <mxPoint x="360" y="460" as="sourcePoint"/>
                        <mxPoint x="360" y="440" as="targetPoint"/>
                    </mxGeometry>
                </mxCell>
                <mxCell id="3TpX2DsgrMbCzZT64vuU-54" value="" style="rounded=0;whiteSpace=wrap;html=1;strokeColor=#333333;fillColor=#B3B3B3;" parent="1" vertex="1">
                    <mxGeometry x="-100" y="520" width="70" height="20" as="geometry"/>
                </mxCell>
                <mxCell id="3TpX2DsgrMbCzZT64vuU-55" value="" style="rounded=0;whiteSpace=wrap;html=1;strokeColor=#333333;fillColor=#B3B3B3;" parent="1" vertex="1">
                    <mxGeometry x="-60" y="475" width="30" height="25" as="geometry"/>
                </mxCell>
                <mxCell id="3TpX2DsgrMbCzZT64vuU-57" value="" style="rounded=0;whiteSpace=wrap;html=1;strokeColor=#333333;fillColor=#B3B3B3;" parent="1" vertex="1">
                    <mxGeometry x="-60" y="540" width="30" height="130" as="geometry"/>
                </mxCell>
                <mxCell id="3TpX2DsgrMbCzZT64vuU-59" value="" style="rounded=0;whiteSpace=wrap;html=1;strokeColor=#333333;fillColor=#B3B3B3;" parent="1" vertex="1">
                    <mxGeometry x="440" y="480" width="40" height="10" as="geometry"/>
                </mxCell>
                <mxCell id="3TpX2DsgrMbCzZT64vuU-60" value="" style="rounded=0;whiteSpace=wrap;html=1;strokeColor=#333333;fillColor=#B3B3B3;" parent="1" vertex="1">
                    <mxGeometry x="120" y="900" width="140" height="70" as="geometry"/>
                </mxCell>
                <mxCell id="3TpX2DsgrMbCzZT64vuU-61" value="" style="rounded=0;whiteSpace=wrap;html=1;fillColor=#4D4D4D;strokeColor=none;shadow=1;" parent="1" vertex="1">
                    <mxGeometry x="190" y="900" width="70" height="60" as="geometry"/>
                </mxCell>
                <mxCell id="3TpX2DsgrMbCzZT64vuU-62" value="" style="rounded=0;whiteSpace=wrap;html=1;fillColor=#4D4D4D;strokeColor=none;shadow=1;" parent="1" vertex="1">
                    <mxGeometry x="120" y="900" width="70" height="60" as="geometry"/>
                </mxCell>
                <mxCell id="3TpX2DsgrMbCzZT64vuU-63" value="" style="rounded=0;whiteSpace=wrap;html=1;strokeColor=#333333;fillColor=#B3B3B3;" parent="1" vertex="1">
                    <mxGeometry x="50" y="900" width="70" height="20" as="geometry"/>
                </mxCell>
                <mxCell id="3TpX2DsgrMbCzZT64vuU-64" value="" style="rounded=0;whiteSpace=wrap;html=1;strokeColor=#333333;fillColor=#B3B3B3;" parent="1" vertex="1">
                    <mxGeometry x="-400" y="880" width="450" height="90" as="geometry"/>
                </mxCell>
                <mxCell id="3TpX2DsgrMbCzZT64vuU-65" value="" style="rounded=0;whiteSpace=wrap;html=1;fillColor=#4D4D4D;strokeColor=none;shadow=1;" parent="1" vertex="1">
                    <mxGeometry x="-20" y="900" width="70" height="60" as="geometry"/>
                </mxCell>
                <mxCell id="3TpX2DsgrMbCzZT64vuU-66" value="" style="rounded=0;whiteSpace=wrap;html=1;fillColor=#4D4D4D;strokeColor=none;shadow=1;" parent="1" vertex="1">
                    <mxGeometry x="-50" y="900" width="30" height="60" as="geometry"/>
                </mxCell>
                <mxCell id="3TpX2DsgrMbCzZT64vuU-67" value="" style="rounded=0;whiteSpace=wrap;html=1;fillColor=#4D4D4D;strokeColor=none;shadow=1;" parent="1" vertex="1">
                    <mxGeometry x="-80" y="900" width="30" height="60" as="geometry"/>
                </mxCell>
                <mxCell id="3TpX2DsgrMbCzZT64vuU-68" value="" style="rounded=0;whiteSpace=wrap;html=1;fillColor=#4D4D4D;strokeColor=none;shadow=1;" parent="1" vertex="1">
                    <mxGeometry x="-110" y="900" width="30" height="60" as="geometry"/>
                </mxCell>
                <mxCell id="3TpX2DsgrMbCzZT64vuU-69" value="" style="rounded=0;whiteSpace=wrap;html=1;strokeColor=#333333;fillColor=#B3B3B3;" parent="1" vertex="1">
                    <mxGeometry x="-130" y="900" width="20" height="60" as="geometry"/>
                </mxCell>
                <mxCell id="3TpX2DsgrMbCzZT64vuU-70" value="" style="rounded=0;whiteSpace=wrap;html=1;strokeColor=#333333;fillColor=#B3B3B3;" parent="1" vertex="1">
                    <mxGeometry x="-130" y="900" width="10" height="50" as="geometry"/>
                </mxCell>
                <mxCell id="3TpX2DsgrMbCzZT64vuU-71" value="" style="rounded=0;whiteSpace=wrap;html=1;fillColor=#4D4D4D;strokeColor=none;shadow=1;" parent="1" vertex="1">
                    <mxGeometry x="-170" y="900" width="40" height="60" as="geometry"/>
                </mxCell>
                <mxCell id="3TpX2DsgrMbCzZT64vuU-73" value="" style="rounded=0;whiteSpace=wrap;html=1;strokeColor=none;fillColor=#E6E6E6;" parent="1" vertex="1">
                    <mxGeometry x="-190" y="900" width="20" height="70" as="geometry"/>
                </mxCell>
                <mxCell id="3TpX2DsgrMbCzZT64vuU-74" value="" style="endArrow=none;html=1;rounded=0;entryX=0;entryY=0;entryDx=0;entryDy=0;exitX=1;exitY=1;exitDx=0;exitDy=0;strokeColor=#4D4D4D;strokeWidth=0.3;" parent="1" source="3TpX2DsgrMbCzZT64vuU-73" target="3TpX2DsgrMbCzZT64vuU-73" edge="1">
                    <mxGeometry width="50" height="50" relative="1" as="geometry">
                        <mxPoint x="-190" y="970" as="sourcePoint"/>
                        <mxPoint x="-140" y="920" as="targetPoint"/>
                    </mxGeometry>
                </mxCell>
                <mxCell id="3TpX2DsgrMbCzZT64vuU-76" value="" style="endArrow=none;html=1;rounded=0;entryX=1;entryY=0;entryDx=0;entryDy=0;exitX=0;exitY=1;exitDx=0;exitDy=0;strokeColor=#4D4D4D;strokeWidth=0.3;" parent="1" source="3TpX2DsgrMbCzZT64vuU-73" target="3TpX2DsgrMbCzZT64vuU-73" edge="1">
                    <mxGeometry width="50" height="50" relative="1" as="geometry">
                        <mxPoint x="-100" y="980" as="sourcePoint"/>
                        <mxPoint x="-120" y="910" as="targetPoint"/>
                    </mxGeometry>
                </mxCell>
                <mxCell id="3TpX2DsgrMbCzZT64vuU-77" value="" style="rounded=0;whiteSpace=wrap;html=1;fillColor=#4D4D4D;strokeColor=none;shadow=1;" parent="1" vertex="1">
                    <mxGeometry x="-270" y="900" width="80" height="60" as="geometry"/>
                </mxCell>
                <mxCell id="3TpX2DsgrMbCzZT64vuU-78" value="" style="rounded=0;whiteSpace=wrap;html=1;fillColor=#4D4D4D;strokeColor=none;shadow=1;" parent="1" vertex="1">
                    <mxGeometry x="-350" y="900" width="80" height="60" as="geometry"/>
                </mxCell>
                <mxCell id="3TpX2DsgrMbCzZT64vuU-79" value="" style="rounded=0;whiteSpace=wrap;html=1;fillColor=#4D4D4D;strokeColor=none;shadow=1;" parent="1" vertex="1">
                    <mxGeometry x="-380" y="900" width="30" height="60" as="geometry"/>
                </mxCell>
                <mxCell id="3TpX2DsgrMbCzZT64vuU-58" value="" style="rounded=0;whiteSpace=wrap;html=1;strokeColor=#333333;fillColor=#B3B3B3;" parent="1" vertex="1">
                    <mxGeometry x="-380" y="880" width="740" height="20" as="geometry"/>
                </mxCell>
                <mxCell id="3TpX2DsgrMbCzZT64vuU-81" value="" style="endArrow=none;html=1;rounded=0;entryX=1;entryY=0;entryDx=0;entryDy=0;exitX=1;exitY=1;exitDx=0;exitDy=0;strokeColor=#B3B3B3;" parent="1" source="3TpX2DsgrMbCzZT64vuU-58" target="3TpX2DsgrMbCzZT64vuU-58" edge="1">
                    <mxGeometry width="50" height="50" relative="1" as="geometry">
                        <mxPoint x="290" y="960" as="sourcePoint"/>
                        <mxPoint x="340" y="910" as="targetPoint"/>
                    </mxGeometry>
                </mxCell>
                <mxCell id="3TpX2DsgrMbCzZT64vuU-82" value="" style="rounded=0;whiteSpace=wrap;html=1;strokeColor=#333333;fillColor=#B3B3B3;" parent="1" vertex="1">
                    <mxGeometry x="220" y="800" width="20" height="80" as="geometry"/>
                </mxCell>
                <mxCell id="3TpX2DsgrMbCzZT64vuU-84" value="" style="rounded=0;whiteSpace=wrap;html=1;strokeColor=#333333;fillColor=#B3B3B3;" parent="1" vertex="1">
                    <mxGeometry x="240" y="750" width="15" height="50" as="geometry"/>
                </mxCell>
                <mxCell id="3TpX2DsgrMbCzZT64vuU-85" value="" style="rounded=0;whiteSpace=wrap;html=1;strokeColor=#333333;fillColor=#B3B3B3;" parent="1" vertex="1">
                    <mxGeometry x="-110" y="680" width="30" height="200" as="geometry"/>
                </mxCell>
                <mxCell id="3TpX2DsgrMbCzZT64vuU-87" value="" style="rounded=0;whiteSpace=wrap;html=1;strokeColor=#333333;fillColor=#B3B3B3;" parent="1" vertex="1">
                    <mxGeometry x="-400" y="870" width="250" height="10" as="geometry"/>
                </mxCell>
                <mxCell id="3TpX2DsgrMbCzZT64vuU-88" value="" style="rounded=0;whiteSpace=wrap;html=1;strokeColor=#333333;fillColor=#B3B3B3;" parent="1" vertex="1">
                    <mxGeometry x="-150" y="860" width="40" height="20" as="geometry"/>
                </mxCell>
                <mxCell id="3TpX2DsgrMbCzZT64vuU-89" value="" style="rounded=0;whiteSpace=wrap;html=1;strokeColor=#333333;fillColor=#B3B3B3;" parent="1" vertex="1">
                    <mxGeometry x="-185" y="860" width="10" height="20" as="geometry"/>
                </mxCell>
                <mxCell id="3TpX2DsgrMbCzZT64vuU-91" value="" style="rounded=0;whiteSpace=wrap;html=1;strokeColor=#333333;fillColor=#B3B3B3;" parent="1" vertex="1">
                    <mxGeometry x="-360" y="750" width="70" height="40" as="geometry"/>
                </mxCell>
                <mxCell id="3TpX2DsgrMbCzZT64vuU-90" value="" style="rounded=0;whiteSpace=wrap;html=1;fillColor=#4D4D4D;strokeColor=none;shadow=1;" parent="1" vertex="1">
                    <mxGeometry x="-360" y="760" width="60" height="110" as="geometry"/>
                </mxCell>
                <mxCell id="3TpX2DsgrMbCzZT64vuU-92" value="" style="rounded=0;whiteSpace=wrap;html=1;strokeColor=#333333;fillColor=#B3B3B3;" parent="1" vertex="1">
                    <mxGeometry x="-80" y="810" width="30" height="70" as="geometry"/>
                </mxCell>
                <mxCell id="3TpX2DsgrMbCzZT64vuU-93" value="" style="rounded=0;whiteSpace=wrap;html=1;strokeColor=#333333;fillColor=#B3B3B3;" parent="1" vertex="1">
                    <mxGeometry x="-80" y="790" width="320" height="20" as="geometry"/>
                </mxCell>
                <mxCell id="3TpX2DsgrMbCzZT64vuU-83" value="" style="rounded=0;whiteSpace=wrap;html=1;fillColor=#4D4D4D;strokeColor=none;shadow=1;" parent="1" vertex="1">
                    <mxGeometry x="160" y="800" width="60" height="80" as="geometry"/>
                </mxCell>
                <mxCell id="3TpX2DsgrMbCzZT64vuU-94" value="" style="rounded=0;whiteSpace=wrap;html=1;strokeColor=#333333;fillColor=#B3B3B3;" parent="1" vertex="1">
                    <mxGeometry x="-380" y="660" width="350" height="20" as="geometry"/>
                </mxCell>
                <mxCell id="3TpX2DsgrMbCzZT64vuU-95" value="" style="rounded=0;whiteSpace=wrap;html=1;strokeColor=#333333;fillColor=#B3B3B3;" parent="1" vertex="1">
                    <mxGeometry x="20" y="740" width="220" height="50" as="geometry"/>
                </mxCell>
                <mxCell id="3TpX2DsgrMbCzZT64vuU-96" value="" style="rounded=0;whiteSpace=wrap;html=1;strokeColor=#333333;fillColor=#B3B3B3;" parent="1" vertex="1">
                    <mxGeometry x="-370" y="610" width="60" height="50" as="geometry"/>
                </mxCell>
                <mxCell id="3TpX2DsgrMbCzZT64vuU-97" value="" style="rounded=0;whiteSpace=wrap;html=1;strokeColor=#333333;fillColor=#B3B3B3;" parent="1" vertex="1">
                    <mxGeometry x="-380" y="620" width="10" height="40" as="geometry"/>
                </mxCell>
                <mxCell id="3TpX2DsgrMbCzZT64vuU-98" value="" style="rounded=0;whiteSpace=wrap;html=1;strokeColor=#333333;fillColor=#B3B3B3;" parent="1" vertex="1">
                    <mxGeometry x="-260" y="680" width="50" height="50" as="geometry"/>
                </mxCell>
                <mxCell id="3TpX2DsgrMbCzZT64vuU-99" value="" style="rounded=0;whiteSpace=wrap;html=1;strokeColor=#333333;fillColor=#B3B3B3;" parent="1" vertex="1">
                    <mxGeometry x="-160" y="610" width="100" height="50" as="geometry"/>
                </mxCell>
                <mxCell id="3TpX2DsgrMbCzZT64vuU-100" value="" style="rounded=0;whiteSpace=wrap;html=1;strokeColor=#333333;fillColor=#E6E6E6;" parent="1" vertex="1">
                    <mxGeometry x="-160" y="610" width="40" height="20" as="geometry"/>
                </mxCell>
                <mxCell id="3TpX2DsgrMbCzZT64vuU-101" value="" style="rounded=0;whiteSpace=wrap;html=1;strokeColor=#333333;fillColor=#E6E6E6;" parent="1" vertex="1">
                    <mxGeometry x="20" y="740" width="50" height="20" as="geometry"/>
                </mxCell>
                <mxCell id="3TpX2DsgrMbCzZT64vuU-104" value="" style="rounded=0;whiteSpace=wrap;html=1;strokeColor=#333333;fillColor=#E6E6E6;" parent="1" vertex="1">
                    <mxGeometry x="100" y="740" width="20" height="10" as="geometry"/>
                </mxCell>
                <mxCell id="3TpX2DsgrMbCzZT64vuU-105" value="" style="rounded=0;whiteSpace=wrap;html=1;strokeColor=#333333;fillColor=#E6E6E6;" parent="1" vertex="1">
                    <mxGeometry x="195" y="740" width="20" height="10" as="geometry"/>
                </mxCell>
                <mxCell id="3TpX2DsgrMbCzZT64vuU-106" value="" style="rounded=0;whiteSpace=wrap;html=1;strokeColor=#333333;fillColor=#E6E6E6;" parent="1" vertex="1">
                    <mxGeometry x="50" y="760" width="20" height="20" as="geometry"/>
                </mxCell>
            </root>
        </mxGraphModel>
    </diagram>
</mxfile>